<svg id="Layer_1" data-name="Layer 1" xmlns="http://www.w3.org/2000/svg" viewBox="0 0 566.34 158.93"><defs><style>.cls-1{fill:#3f3f3f;}</style></defs><path class="cls-1" d="M176.62,129.61h-28l-6.5,11.17H119l42.71-68.47h25.34l14.8,68.47H178.64Zm-2.57-14.47L170.12,92.9l-13,22.24Z"/><path class="cls-1" d="M217.72,88.48a45,45,0,0,1,16.59-12.34,53.47,53.47,0,0,1,21.86-4.41q14.91,0,23.37,6.21a20.52,20.52,0,0,1,8.69,17H264.58a8.51,8.51,0,0,0-4.26-4.18,17.58,17.58,0,0,0-7.62-1.45,21.5,21.5,0,0,0-14,4.66,20.67,20.67,0,0,0-7.34,12.53,26,26,0,0,0-.56,4.85q0,6.51,4.26,9.86t12.55,3.35a21.88,21.88,0,0,0,18.39-9H244l2.8-13.7h41L284,120.29q-5.82,8.64-16.7,14.86t-25.11,6.21A43.92,43.92,0,0,1,224,137.92a26.4,26.4,0,0,1-11.66-9.67,25.79,25.79,0,0,1-4-14.37,33.2,33.2,0,0,1,.79-7.38A39.78,39.78,0,0,1,217.72,88.48Z"/><path class="cls-1" d="M340.93,129.71h-28l-6.5,11.17H283.31L326,72.4h25.33l14.8,68.48H343Zm-2.58-14.47L334.43,93l-13,22.24Z"/><path class="cls-1" d="M398.32,126.41h24.55l-3,14.47H373.21l14-68.48h22Z"/><path class="cls-1" d="M464.24,72.4l-13.9,68.48H428.25l14-68.48Z"/><path class="cls-1" d="M526.9,75.76A26.59,26.59,0,0,1,539,85.23a24.85,24.85,0,0,1,4.15,14.27,30.94,30.94,0,0,1-.79,7.09,38.53,38.53,0,0,1-8.68,17.68,45.83,45.83,0,0,1-16.93,12.19,56.74,56.74,0,0,1-22.7,4.42H462.78l14-68.48h31.28A48.18,48.18,0,0,1,526.9,75.76Zm-15,43.8a20.72,20.72,0,0,0,8.19-13,19,19,0,0,0,.44-4.17q0-6.51-4.59-10T503,88.92h-7.52l-7.28,35.25h7.62Q505.49,124.17,511.88,119.56Z"/><path class="cls-1" d="M48.81,15.53c1.92,1.15,3,3.09,4.32,4.72,6.54,8,13,16,19.51,24,.58.7,1,2,2.23,1.58,1.44-.49.9-1.87.79-2.84C74.79,35,73.82,27,73,19.07c-.09-.76-.6-2,.55-2.3s1.28,1,1.61,1.74c3.3,7.31,6.61,14.61,9.79,22,.76,1.77,1.68,2.18,3.59,2,2.12-.16,2.32-1.36,2.56-2.88Q92.52,30,94,20.39c1.16,0,1,.94,1,1.52,1,5.86,2,11.71,2.84,17.58.28,2,.87,2.88,3,3.06,4.6.37,4.58.52,6.57-3.81a66,66,0,0,1,4.69-8.9c-.41,4.09-.71,8.18-1.26,12.25-.27,2,.4,3,2.22,3.44a6.43,6.43,0,0,1,1.65.67c3,1.77,5.75,2.65,7.62-1.45.18-.4.57-.93,1.16-.65a1,1,0,0,1,.3,1.52c-2.74,3.89-.13,5.52,2.75,7.48a32.58,32.58,0,0,1,9,9.22,122,122,0,0,0-13.1-3.72C87.15,51.74,54.11,73.2,46,108.35c-.18.79,0,2.13-1.06,2.19-1.38.08-1.12-1.4-1.34-2.25A42.11,42.11,0,0,1,42,99.24a2.24,2.24,0,0,0-2.27-2.49c-3.12-.43-6.23-1-9.81-1.58a34.73,34.73,0,0,1,9.56-2.3c1.67-.21,2.34-.8,2.5-2.56.53-6.24.61-6.24-5.36-8.75-.73-.31-1.48-.58-2.2-.91-2.51-1.13-5-2.29-8-3.66,5.38-.81,10.19.28,15,.67,1.77.14,3.26.58,3.91-1.79.56-2,1.95-3.56-.72-5.51-5.74-4.19-11.11-8.89-16.69-13.42,1.17-1,2.17-.17,3.17.2,5.84,2.2,11.65,4.46,17.5,6.62,1.23.45,2.42,1.39,3.79-.49s.42-2.59-.45-3.79c-5.5-7.59-11-15.19-16.48-22.82,1.37-1,2.19.12,3.07.76q10.11,7.3,20.18,14.66c.24.17.52.28.78.44.72.44,1.38,1.48,2.31.8s.27-1.63,0-2.45c-.94-2.5-1.88-5-2.84-7.49l-10-26C48.69,16.8,48.34,16.27,48.81,15.53Z"/><path class="cls-1" d="M75.7,140.79l10.38-18c2.77-4.8,5.57-9.57,8.28-14.4a2.63,2.63,0,0,1,2.69-1.54q14.79.09,29.6,0c2,0,2.28.49,1.3,2.18q-8.85,15.21-17.62,30.46a2,2,0,0,1-1.84,1.29C97.74,140.78,87,140.79,75.7,140.79Z"/><path class="cls-1" d="M93.63,106.94,82.91,125.6c-2.51,4.37-5.06,8.72-7.53,13.11a3.45,3.45,0,0,1-3.46,2.1q-14.4-.17-28.8,0c-2.58,0-2.5-.67-1.39-2.57C47.42,128.51,53,118.73,58.66,109c.63-1.08,1.1-2.11,2.82-2.09C72,107,82.45,106.94,93.63,106.94Z"/><path class="cls-1" d="M148.35,72.05C143.18,81,138,89.18,133.71,97.8c-2.83,5.73-6.33,7.9-12.73,7.3-7.18-.66-14.47-.2-21.71-.12-2.29,0-2.5-.6-1.4-2.47q8.35-14.3,16.55-28.67A3.26,3.26,0,0,1,117.67,72C127.61,72.07,137.55,72.05,148.35,72.05Z"/><path class="cls-1" d="M113.46,72.27c-6.26,10.83-12,20.82-17.8,30.83A3.53,3.53,0,0,1,92.23,105c-9.81,0-19.61,0-30.45,0,5-8.73,10.1-16.49,14.06-24.79,3.09-6.49,7.25-8.71,14.27-8.08C97.43,72.79,104.85,72.27,113.46,72.27Z"/></svg>