<svg width="40" height="40" viewBox="0 0 40 40" fill="none" xmlns="http://www.w3.org/2000/svg">
<path d="M19.7011 4.92578C18.3466 4.92578 17.2383 6.03406 17.2383 7.38863C17.2383 8.74319 18.3466 9.85148 19.7011 9.85148C21.0557 9.85148 22.164 8.74319 22.164 7.38863C22.164 6.03406 21.0557 4.92578 19.7011 4.92578ZM19.7011 29.5543C18.3466 29.5543 17.2383 30.6625 17.2383 32.0171C17.2383 33.3717 18.3466 34.4799 19.7011 34.4799C21.0557 34.4799 22.164 33.3717 22.164 32.0171C22.164 30.6625 21.0557 29.5543 19.7011 29.5543ZM19.7011 17.24C18.3466 17.24 17.2383 18.3483 17.2383 19.7029C17.2383 21.0574 18.3466 22.1657 19.7011 22.1657C21.0557 22.1657 22.164 21.0574 22.164 19.7029C22.164 18.3483 21.0557 17.24 19.7011 17.24Z" fill="#2D2D2D"/>
</svg>
