<svg width="70" height="70" viewBox="0 0 70 70" fill="none" xmlns="http://www.w3.org/2000/svg">
<path d="M64.0406 16.3047C61.8394 17.2784 59.5051 17.9179 57.1151 18.2021C59.6331 16.6947 61.5174 14.3234 62.4167 11.5299C60.0506 12.9357 57.4608 13.9252 54.76 14.4552C52.4801 12.023 49.2938 10.6447 45.9601 10.6484C39.3019 10.6484 33.9017 16.0468 33.9017 22.708C33.9017 23.653 34.0101 24.5694 34.2128 25.4536C24.1871 24.9489 15.3052 20.1511 9.35609 12.8544C8.28496 14.6947 7.72202 16.7866 7.72488 18.9159C7.72488 23.0994 9.85439 26.7919 13.0892 28.9537C11.1743 28.8932 9.3016 28.376 7.62725 27.445C7.6254 27.4956 7.6254 27.5463 7.6254 27.5942C7.6254 33.4385 11.7822 38.3136 17.3003 39.4205C16.2646 39.7008 15.1964 39.8424 14.1235 39.8415C13.3443 39.8415 12.5881 39.7697 11.8531 39.6287C13.3885 44.4185 17.8391 47.9056 23.1177 48.0013C18.8462 51.3538 13.5713 53.1726 8.1412 53.1648C7.18016 53.1657 6.21992 53.1089 5.26562 52.9953C10.7783 56.5392 17.1951 58.42 23.7487 58.413C45.9306 58.413 58.0591 40.0387 58.0591 24.1043C58.0591 23.583 58.0464 23.0598 58.0234 22.544C60.3839 20.8385 62.4216 18.7256 64.0406 16.3047Z" fill="white"/>
</svg>
