<svg width="2798" height="95" viewBox="0 0 2798 95" fill="none" xmlns="http://www.w3.org/2000/svg">
<path fill-rule="evenodd" clip-rule="evenodd" d="M177.462 71.3932C160.84 83.6454 136.747 90.1824 116.003 90.1824C86.9162 90.1824 60.7311 79.4242 40.9207 61.5318C39.3647 60.1245 40.7591 58.2071 42.6267 59.3029C64.0057 71.7419 90.44 79.2251 117.746 79.2251C136.161 79.2251 156.42 75.415 175.047 67.5084C177.861 66.313 180.214 69.3511 177.462 71.3932Z" fill="#606060"/>
<path fill-rule="evenodd" clip-rule="evenodd" d="M165.341 13.3917V6.89217C165.341 5.90846 166.089 5.24856 166.985 5.24856H196.084C197.018 5.24856 197.765 5.92076 197.765 6.89217V12.4577C197.752 13.3917 196.968 14.6119 195.574 16.5419L180.495 38.0702C186.098 37.9335 192.012 38.7676 197.092 41.6315C198.238 42.2788 198.549 43.2253 198.636 44.159V51.0944C198.636 52.0406 197.59 53.1488 196.495 52.5761C187.542 47.8821 175.651 47.3715 165.752 52.6259C164.744 53.174 163.686 52.0781 163.686 51.1319V44.5451C163.686 43.4868 163.698 41.6812 164.756 40.0751L182.226 15.023H167.022C166.089 15.023 165.341 14.3631 165.341 13.3917ZM59.1939 53.9457H50.3408C49.4941 53.8836 48.8219 53.2486 48.7595 52.4391V7.0043C48.7595 6.09525 49.519 5.37298 50.4652 5.37298H58.7205C59.5797 5.41017 60.2645 6.07036 60.3269 6.89188V12.8316H60.4888C62.6427 7.09154 66.6894 4.41473 72.1431 4.41473C77.6838 4.41473 81.1455 7.09154 83.6358 12.8316C85.7774 7.09154 90.6459 4.41473 95.8631 4.41473C99.5734 4.41473 103.633 5.94622 106.11 9.38276C108.912 13.2052 108.339 18.7585 108.339 23.6269L108.327 52.3024C108.327 53.2114 107.567 53.946 106.621 53.946H97.7805C96.8966 53.8839 96.1866 53.1742 96.1866 52.3024V28.2214C96.1866 26.3037 96.3611 21.5222 95.9378 19.7047C95.2779 16.654 93.2981 15.7947 90.7329 15.7947C88.5913 15.7947 86.3501 17.2267 85.4411 19.5179C84.5323 21.8091 84.6195 25.6438 84.6195 28.2214V52.3021C84.6195 53.2111 83.8598 53.9457 82.9136 53.9457H74.0731C73.1766 53.8836 72.4792 53.174 72.4792 52.3021L72.4669 28.2214C72.4669 23.1535 73.301 15.6955 67.0132 15.6955C60.6507 15.6955 60.8995 22.9667 60.8995 28.2214V52.3021C60.8995 53.2111 60.1401 53.9457 59.1939 53.9457ZM222.817 4.41445C235.953 4.41445 243.063 15.6952 243.063 30.0392C243.063 43.8975 235.206 54.8922 222.817 54.8922C209.917 54.8922 202.895 43.6112 202.895 29.5535C202.895 15.4089 210.004 4.41445 222.817 4.41445ZM222.892 13.6906C216.367 13.6906 215.956 22.5809 215.956 28.1216C215.956 33.6751 215.869 45.5285 222.817 45.5285C229.678 45.5285 230.001 35.9661 230.001 30.1388C230.001 26.3038 229.839 21.7216 228.682 18.086C227.686 14.9232 225.705 13.6906 222.892 13.6906ZM260.096 53.9457H251.281C250.397 53.8836 249.687 53.174 249.687 52.3021L249.675 6.8547C249.749 6.02059 250.484 5.37298 251.38 5.37298H259.586C260.358 5.41017 260.993 5.93363 261.167 6.64302V13.5911H261.329C263.807 7.37787 267.281 4.41445 273.394 4.41445C277.366 4.41445 281.239 5.8461 283.729 9.76835C286.045 13.404 286.045 19.5179 286.045 23.9133V52.5138C285.945 53.3107 285.211 53.9457 284.339 53.9457H275.461C274.652 53.8836 273.98 53.2858 273.892 52.5138V27.8352C273.892 22.8672 274.465 15.5954 268.352 15.5954C266.198 15.5954 264.218 17.0399 263.234 19.2313C261.989 22.0082 261.827 24.7723 261.827 27.8355V52.3021C261.815 53.2111 261.043 53.9457 260.096 53.9457ZM142.145 32.2432C142.145 35.692 142.232 38.5685 140.488 41.6312C139.082 44.1218 136.84 45.653 134.362 45.653C130.963 45.653 128.971 43.0634 128.971 39.2407C128.971 31.6951 135.732 30.3255 142.145 30.3255V32.2432ZM151.072 53.8213C150.487 54.3442 149.64 54.3816 148.98 54.0329C146.042 51.5924 145.506 50.4594 143.9 48.131C139.044 53.0867 135.595 54.5684 129.307 54.5684C121.849 54.5684 116.059 49.9737 116.059 40.7725C116.059 33.5879 119.944 28.6945 125.497 26.3037C130.303 24.187 137.015 23.8134 142.145 23.2282V22.0829C142.145 19.9784 142.307 17.4881 141.061 15.6703C139.991 14.0393 137.923 13.3668 136.093 13.3668C132.719 13.3668 129.718 15.0974 128.984 18.6835C128.834 19.4804 128.249 20.2648 127.44 20.3022L118.861 19.3809C118.139 19.219 117.329 18.6337 117.541 17.5256C119.508 7.11643 128.921 3.97852 137.339 3.97852C141.647 3.97852 147.275 5.12413 150.674 8.38647C154.982 12.4083 154.571 17.7745 154.571 23.6144V37.4103C154.571 41.5568 156.29 43.3743 157.908 45.6158C158.469 46.4127 158.593 47.3715 157.871 47.9691C156.066 49.4757 152.853 52.2772 151.085 53.8462L151.073 53.8213M26.0856 32.2432C26.0856 35.692 26.1728 38.5685 24.4294 41.6312C23.0226 44.1218 20.7938 45.653 18.3034 45.653C14.9044 45.653 12.9244 43.0634 12.9244 39.2407C12.9244 31.6951 19.6856 30.3255 26.0856 30.3255V32.2432ZM35.013 53.8213C34.4281 54.3442 33.5814 54.3816 32.9215 54.0329C29.9829 51.5924 29.4598 50.4594 27.8413 48.131C22.9851 53.0867 19.5489 54.5684 13.2482 54.5684C5.80242 54.5684 0 49.9737 0 40.7725C0 33.5879 3.89736 28.6945 9.43805 26.3037C14.2445 24.187 20.9557 23.8134 26.0856 23.2282V22.0829C26.0856 19.9784 26.2475 17.4881 25.0146 15.6703C23.9314 14.0393 21.8647 13.3668 20.0466 13.3668C16.6724 13.3668 13.6592 15.0974 12.9244 18.6835C12.7751 19.4804 12.1898 20.2648 11.3929 20.3022L2.80152 19.3809C2.07926 19.219 1.28263 18.6337 1.48171 17.5256C3.46143 7.11643 12.8623 3.97852 21.2795 3.97852C25.5873 3.97852 31.2155 5.12413 34.6149 8.38647C38.9227 12.4083 38.5119 17.7745 38.5119 23.6144V37.4103C38.5119 41.5568 40.2302 43.3743 41.8489 45.6158C42.4219 46.4127 42.5463 47.3715 41.8241 47.9691C40.0185 49.4757 36.8063 52.2772 35.0382 53.8462L35.013 53.8213Z" fill="#606060"/>
<path d="M520.418 73.9097H509.639V47.0403H502.297V38.2922H509.639V32.0673C509.639 24.6908 512.887 19.4004 523.636 19.4004C525.909 19.4004 529.479 19.8586 529.479 19.8586V27.9817H525.73C521.91 27.9817 520.418 29.1437 520.418 32.3559V38.2922H529.336L528.542 47.0403H520.418L520.418 73.9097ZM545.149 37.5931C544.992 37.5931 544.831 37.5989 544.671 37.6029C534.676 37.6029 530.104 45.1207 530.104 55.7925C530.104 69.236 536.035 74.6165 544.749 74.6165C549.734 74.6165 553.01 72.5181 555.001 68.6021V73.9134H565.253V38.2959H555.001V43.7734C553.375 40.2493 550.008 37.6349 545.149 37.5931ZM547.756 46.0094C551.954 46.0094 554.473 48.9374 554.473 53.9177L554.483 59.0045C554.483 62.3612 552.402 66.2883 547.756 66.2883C540.613 66.2883 540.804 58.576 540.804 56.0073C540.804 47.3667 544.61 46.0094 547.756 46.0094ZM569.393 56.1065C569.393 51.7784 569.186 37.6163 587.637 37.6163C595.043 37.6163 598.136 39.9713 598.136 39.9713L595.65 47.6811C595.65 47.6811 592.562 45.9803 588.537 45.9803C583.382 45.9803 580.093 48.9686 580.093 54.2264L580.099 57.9964C580.099 63.0486 583.272 66.421 588.547 66.421C592.214 66.421 595.593 64.7042 595.593 64.7042L598.073 72.2529C598.073 72.2529 595.245 74.6228 587.688 74.6228C570.12 74.6228 569.393 61.9167 569.393 56.1065H569.393ZM658.246 37.6029C668.241 37.6029 672.886 45.1207 672.886 55.7925C672.886 69.236 666.954 74.6165 658.24 74.6165C653.255 74.6165 649.569 72.5184 647.579 68.6021V73.9134L637.456 73.9094V20.4834L648.204 19.546V43.2909C649.755 39.1366 654.852 37.6029 658.246 37.6029ZM655.233 46.0094C651.035 46.0094 648.204 48.9374 648.204 53.9177L648.194 59.0045C648.187 62.3612 650.155 66.2883 655.233 66.2883C662.376 66.2883 662.185 58.576 662.185 56.0073C662.185 47.3667 658.38 46.0094 655.233 46.0094ZM616.784 37.6323C605.448 37.6323 599.464 43.8129 599.464 54.7965V56.8371C599.464 71.0927 607.868 74.763 617.888 74.763C627.627 74.763 632.035 72.039 632.035 72.039L630.024 64.7849C630.024 64.7849 624.838 66.9911 619.176 66.9911C613.307 66.9911 610.782 65.4951 610.135 59.8543H632.894V54.0347C632.894 42.1204 626.178 37.632 616.784 37.632L616.784 37.6323ZM617.058 44.8962C620.982 44.8962 623.524 47.3024 623.385 52.8828H610.155C610.384 47.0094 613.126 44.8962 617.058 44.8962ZM694.317 37.5834C682.675 37.5834 676.547 44.1436 676.547 55.8997C676.547 72.0298 687.111 74.6262 694.336 74.6262C704.913 74.6262 711.95 68.9319 711.95 56.0462C711.95 42.6344 704.038 37.5834 694.317 37.5834ZM694.17 46.0386C699.289 46.0386 701.317 49.8696 701.317 54.2304V57.9796C701.317 63.2622 698.479 66.3178 694.151 66.3178C690.103 66.3178 687.258 63.4596 687.258 57.9796V54.2304C687.258 48.3859 690.643 46.0386 694.17 46.0386ZM733.361 37.5834C721.72 37.5834 715.591 44.1436 715.591 55.8997C715.591 72.0298 726.156 74.6262 733.381 74.6262C743.957 74.6262 750.994 68.9319 750.994 56.0462C750.994 42.6344 743.082 37.5834 733.361 37.5834ZM733.215 46.0386C738.333 46.0386 740.362 49.8696 740.362 54.2304V57.9796C740.362 63.2622 737.523 66.3178 733.195 66.3178C729.147 66.3178 726.302 63.4596 726.302 57.9796V54.2304C726.302 48.3859 729.687 46.0386 733.215 46.0386ZM755.056 73.9097V20.4834L765.835 19.5463V55.356L776.529 38.2925H787.912L776.756 55.9652L788.342 73.9097H776.926L765.835 56.4855V73.9097H755.056Z" fill="#606060"/>
<path d="M1127 49.5548C1127 63.1018 1116.41 73.0843 1103.4 73.0843C1090.39 73.0843 1079.8 63.1018 1079.8 49.5548C1079.8 35.9124 1090.39 26.0254 1103.4 26.0254C1116.41 26.0254 1127 35.9124 1127 49.5548ZM1116.67 49.5548C1116.67 41.0893 1110.53 35.2971 1103.4 35.2971C1096.27 35.2971 1090.13 41.0893 1090.13 49.5548C1090.13 57.9355 1096.27 63.8125 1103.4 63.8125C1110.53 63.8125 1116.67 57.9249 1116.67 49.5548Z" fill="#606060"/>
<path d="M1177.92 49.5548C1177.92 63.1018 1167.32 73.0843 1154.31 73.0843C1141.31 73.0843 1130.71 63.1018 1130.71 49.5548C1130.71 35.923 1141.31 26.0254 1154.31 26.0254C1167.32 26.0254 1177.92 35.9124 1177.92 49.5548ZM1167.59 49.5548C1167.59 41.0893 1161.44 35.2971 1154.31 35.2971C1147.19 35.2971 1141.04 41.0893 1141.04 49.5548C1141.04 57.9355 1147.19 63.8125 1154.31 63.8125C1161.44 63.8125 1167.59 57.9249 1167.59 49.5548Z" fill="#606060"/>
<path d="M1226.72 27.4469V69.6896C1226.72 87.0661 1216.47 94.1632 1204.35 94.1632C1192.95 94.1632 1186.09 86.5357 1183.5 80.298L1192.49 76.5532C1194.1 80.3829 1198.02 84.902 1204.34 84.902C1212.1 84.902 1216.9 80.1176 1216.9 71.1111V67.727H1216.54C1214.23 70.5807 1209.77 73.0737 1204.15 73.0737C1192.39 73.0737 1181.61 62.8259 1181.61 49.6397C1181.61 36.358 1192.39 26.0254 1204.15 26.0254C1209.76 26.0254 1214.22 28.5184 1216.54 31.2872H1216.9V27.4575H1226.72V27.4469ZM1217.64 49.6397C1217.64 41.3545 1212.11 35.2971 1205.08 35.2971C1197.95 35.2971 1191.97 41.3545 1191.97 49.6397C1191.97 57.84 1197.95 63.8125 1205.08 63.8125C1212.11 63.8125 1217.64 57.84 1217.64 49.6397Z" fill="#606060"/>
<path d="M1242.9 2.68555V71.6402H1232.82V2.68555H1242.9Z" fill="#606060"/>
<path d="M1282.17 57.2959L1290.19 62.6425C1287.6 66.4722 1281.36 73.0706 1270.58 73.0706C1257.22 73.0706 1247.23 62.738 1247.23 49.5412C1247.23 35.5487 1257.3 26.0117 1269.43 26.0117C1281.64 26.0117 1287.61 35.729 1289.56 40.9802L1290.63 43.6535L1259.18 56.6806C1261.59 61.4013 1265.33 63.8095 1270.58 63.8095C1275.85 63.8095 1279.49 61.221 1282.17 57.2959ZM1257.48 48.8304L1278.51 40.0997C1277.35 37.1611 1273.87 35.1137 1269.78 35.1137C1264.53 35.1137 1257.22 39.7496 1257.48 48.8304Z" fill="#606060"/>
<path d="M1041.64 43.4308V33.4483H1075.28C1075.61 35.1881 1075.78 37.2461 1075.78 39.4739C1075.78 46.9634 1073.74 56.2245 1067.14 62.823C1060.72 69.5062 1052.52 73.0707 1041.66 73.0707C1021.52 73.0707 1004.59 56.6701 1004.59 36.5353C1004.59 16.4006 1021.52 0 1041.66 0C1052.79 0 1060.73 4.37066 1066.69 10.0674L1059.65 17.1114C1055.37 13.1014 1049.58 9.98251 1041.64 9.98251C1026.94 9.98251 1015.44 21.8321 1015.44 36.5353C1015.44 51.2386 1026.94 63.0882 1041.64 63.0882C1051.18 63.0882 1056.61 59.2585 1060.09 55.779C1062.91 52.9571 1064.77 48.9259 1065.5 43.4202L1041.64 43.4308Z" fill="#606060"/>
<path d="M1546.21 80.7521C1541.91 81.5077 1537.53 81.7343 1533 82.3377L1519.19 41.8735V84.0743C1514.89 84.5271 1510.96 85.1311 1506.88 85.735V8.42969H1518.36L1534.06 52.292V8.42969H1546.21V80.7521ZM1570 36.7398C1574.68 36.7398 1581.85 36.5132 1586.15 36.5132V48.5919C1580.79 48.5919 1574.53 48.5919 1570 48.8184V66.7862C1577.09 66.3334 1584.19 65.7289 1591.36 65.5024V77.1277L1557.92 79.7705V8.42969H1591.36V20.5087H1570V36.7398ZM1636.28 20.5089H1623.75V76.072C1619.67 76.072 1615.59 76.072 1611.67 76.2226V20.5089H1599.14V8.42969H1636.28L1636.28 20.5089ZM1655.91 35.9096H1672.44V47.9882H1655.91V75.3927H1644.05V8.42969H1677.8V20.5087H1655.91V35.9096ZM1697.43 64.8233C1704.3 64.9738 1711.24 65.5032 1717.96 65.88V77.8082C1707.17 77.1282 1696.37 76.4497 1685.35 76.2226V8.42969H1697.43V64.8233ZM1728.15 78.6386C1732 78.8655 1736.08 79.092 1740.01 79.5443V8.42969H1728.15V78.6386ZM1792.93 8.42969L1777.6 45.1951L1792.93 85.735C1788.4 85.1311 1783.87 84.3006 1779.34 83.5455L1770.66 61.1999L1761.83 81.7343C1757.45 80.9787 1753.22 80.7521 1748.84 80.1482L1764.39 44.7418L1750.35 8.42969H1763.33L1771.26 28.7375L1779.72 8.42969H1792.93Z" fill="#606060"/>
<path d="M2052.07 4.18555C2028.38 4.18555 2009.18 23.3907 2009.18 47.081C2009.18 70.7723 2028.38 89.9759 2052.07 89.9759C2075.76 89.9759 2094.97 70.7723 2094.97 47.081C2094.97 23.3922 2075.76 4.1876 2052.07 4.1876L2052.07 4.18555ZM2071.74 66.0531C2071.56 66.353 2071.32 66.6139 2071.04 66.8209C2070.75 67.0278 2070.43 67.1767 2070.09 67.259C2069.75 67.3413 2069.39 67.3554 2069.05 67.3006C2068.7 67.2457 2068.37 67.1229 2068.07 66.9393C2057.99 60.7873 2045.32 59.3941 2030.38 62.8055C2029.69 62.9628 2028.97 62.839 2028.37 62.4616C2027.77 62.0841 2027.34 61.4837 2027.18 60.7925C2027.1 60.4502 2027.09 60.0958 2027.15 59.7495C2027.21 59.4032 2027.34 59.0719 2027.52 58.7746C2027.71 58.4772 2027.95 58.2196 2028.24 58.0165C2028.53 57.8134 2028.85 57.6688 2029.19 57.591C2045.53 53.8578 2059.55 55.4652 2070.86 62.3753C2072.12 63.1487 2072.52 64.793 2071.74 66.0531ZM2076.99 54.3731C2076.03 55.9467 2073.97 56.4436 2072.39 55.4755C2060.86 48.3882 2043.29 46.3357 2029.65 50.4756C2027.88 51.0098 2026.01 50.013 2025.48 48.2473C2025.22 47.3985 2025.31 46.4827 2025.73 45.7007C2026.15 44.9188 2026.86 44.3346 2027.71 44.0762C2043.28 39.3493 2062.65 41.639 2075.89 49.7759C2077.47 50.744 2077.96 52.8026 2076.99 54.3731ZM2077.44 42.2107C2063.62 33.9991 2040.81 33.244 2027.61 37.2502C2025.49 37.8931 2023.25 36.6965 2022.61 34.5769C2022.3 33.5585 2022.41 32.4592 2022.91 31.5206C2023.41 30.582 2024.26 29.8811 2025.28 29.5718C2040.43 24.972 2065.62 25.8607 2081.54 35.3099C2081.99 35.5782 2082.39 35.9335 2082.71 36.3552C2083.02 36.7769 2083.25 37.2569 2083.38 37.7676C2083.51 38.2783 2083.54 38.8097 2083.47 39.3313C2083.39 39.853 2083.21 40.3547 2082.94 40.8077C2081.82 42.7142 2079.35 43.3427 2077.45 42.2107H2077.44ZM2125.88 43.7843C2118.47 42.0181 2117.16 40.7785 2117.16 38.1738C2117.16 35.713 2119.47 34.0569 2122.92 34.0569C2126.26 34.0569 2129.57 35.3145 2133.04 37.9033C2133.14 37.9817 2133.28 38.0129 2133.41 37.9924C2133.47 37.9832 2133.53 37.9609 2133.59 37.9269C2133.64 37.8929 2133.69 37.8479 2133.73 37.7947L2137.35 32.697C2137.42 32.5959 2137.45 32.4714 2137.43 32.3488C2137.41 32.2263 2137.35 32.1148 2137.25 32.0372C2133.12 28.7215 2128.47 27.1095 2123.03 27.1095C2115.03 27.1095 2109.44 31.9086 2109.44 38.7751C2109.44 46.1385 2114.26 48.7458 2122.59 50.7583C2129.68 52.3908 2130.88 53.7585 2130.88 56.2028C2130.88 58.9126 2128.46 60.5978 2124.57 60.5978C2120.24 60.5978 2116.71 59.1379 2112.77 55.7265C2112.67 55.6433 2112.54 55.6011 2112.41 55.6087C2112.28 55.6189 2112.16 55.6804 2112.08 55.7777L2108.03 60.6029C2107.86 60.8078 2107.88 61.1049 2108.07 61.2791C2112.66 65.3769 2118.31 67.5386 2124.4 67.5386C2133.02 67.5386 2138.58 62.8311 2138.58 55.5421C2138.6 49.3917 2134.92 45.9853 2125.9 43.7909L2125.88 43.7843ZM2158.08 36.4798C2154.35 36.4798 2151.28 37.9509 2148.75 40.9654V37.5724C2148.75 37.4441 2148.7 37.3209 2148.61 37.2297C2148.52 37.1386 2148.4 37.087 2148.27 37.0863H2141.64C2141.37 37.0863 2141.16 37.3045 2141.16 37.5724V75.2733C2141.16 75.5397 2141.37 75.7599 2141.64 75.7599H2148.27C2148.54 75.7599 2148.75 75.5397 2148.75 75.2733V63.3741C2151.28 66.2068 2154.35 67.5949 2158.08 67.5949C2165.02 67.5949 2172.05 62.2523 2172.05 52.0389C2172.06 41.8234 2165.03 36.4793 2158.09 36.4793L2158.08 36.4798ZM2164.33 52.0389C2164.33 57.2376 2161.13 60.8693 2156.54 60.8693C2152.01 60.8693 2148.59 57.0736 2148.59 52.0389C2148.59 47.0036 2152.01 43.209 2156.54 43.209C2161.06 43.2085 2164.33 46.9217 2164.33 52.0389ZM2190.05 36.4798C2181.12 36.4798 2174.11 43.3622 2174.11 52.1501C2174.11 60.8437 2181.07 67.6513 2189.95 67.6513C2198.92 67.6513 2205.94 60.7925 2205.94 52.0389C2205.94 43.3151 2198.96 36.4808 2190.05 36.4808V36.4798ZM2190.05 60.9205C2185.3 60.9205 2181.71 57.0993 2181.71 52.0363C2181.71 46.9504 2185.18 43.2597 2189.95 43.2597C2194.73 43.2597 2198.34 47.0795 2198.34 52.1475C2198.34 57.2324 2194.85 60.9205 2190.05 60.9205ZM2225.02 37.0863H2217.72V29.6251C2217.73 29.5616 2217.71 29.4987 2217.69 29.4399C2217.66 29.3811 2217.63 29.3277 2217.58 29.2826C2217.54 29.2375 2217.49 29.2016 2217.43 29.1771C2217.37 29.1525 2217.31 29.1398 2217.24 29.1395H2210.61C2210.34 29.1395 2210.12 29.3577 2210.12 29.6251V37.0863H2206.94C2206.67 37.0863 2206.46 37.3045 2206.46 37.5724V43.272C2206.46 43.5394 2206.67 43.7581 2206.94 43.7581H2210.12V58.5079C2210.12 64.4652 2213.09 67.4873 2218.94 67.4873C2221.32 67.4873 2223.29 66.9956 2225.15 65.9404C2225.31 65.8584 2225.4 65.6945 2225.4 65.5204V60.0907C2225.4 59.9268 2225.31 59.768 2225.17 59.6809C2225.1 59.6363 2225.02 59.6109 2224.93 59.6073C2224.85 59.6037 2224.77 59.622 2224.7 59.6604C2223.42 60.3007 2222.19 60.5978 2220.8 60.5978C2218.68 60.5978 2217.72 59.6297 2217.72 57.4681V43.7607H2225.02C2225.29 43.7607 2225.51 43.5425 2225.51 43.2746V37.5755C2225.51 37.5119 2225.5 37.4485 2225.47 37.3892C2225.45 37.3299 2225.42 37.2759 2225.37 37.2304C2225.33 37.185 2225.27 37.1491 2225.21 37.1248C2225.16 37.1006 2225.09 37.0885 2225.03 37.0894L2225.02 37.0863ZM2250.45 37.1155V36.1991C2250.45 33.5032 2251.49 32.301 2253.8 32.301C2255.18 32.301 2256.3 32.5756 2257.54 32.9905C2257.69 33.0386 2257.85 33.0146 2257.98 32.9229C2258.04 32.8779 2258.09 32.8186 2258.12 32.7499C2258.16 32.6813 2258.18 32.6054 2258.18 32.5284V26.94C2258.18 26.8356 2258.14 26.7337 2258.08 26.6497C2258.02 26.5656 2257.93 26.5041 2257.83 26.4744C2256.52 26.0835 2254.84 25.6824 2252.32 25.6824C2246.2 25.6824 2242.96 29.1318 2242.96 35.6541V37.0576H2239.77C2239.51 37.0576 2239.28 37.2758 2239.28 37.5432V43.272C2239.28 43.5394 2239.51 43.7581 2239.77 43.7581H2242.96V66.5039C2242.96 66.7753 2243.18 66.9905 2243.44 66.9905H2250.07C2250.34 66.9905 2250.56 66.7753 2250.56 66.5039V43.7597H2256.75L2266.24 66.5039C2265.16 68.8909 2264.1 69.3672 2262.66 69.3672C2261.49 69.3672 2260.26 69.0189 2259 68.3274C2258.88 68.2674 2258.74 68.2546 2258.62 68.2916C2258.49 68.3377 2258.38 68.4299 2258.33 68.5528L2256.08 73.4856C2255.97 73.7212 2256.07 73.9927 2256.29 74.1156C2258.64 75.386 2260.75 75.929 2263.37 75.929C2268.27 75.929 2270.98 73.6444 2273.36 67.5078L2284.86 37.7794C2284.89 37.7059 2284.9 37.626 2284.9 37.5472C2284.89 37.4683 2284.86 37.393 2284.81 37.3281C2284.77 37.2631 2284.71 37.2098 2284.64 37.173C2284.57 37.1362 2284.5 37.117 2284.42 37.117H2277.51C2277.3 37.117 2277.12 37.2487 2277.05 37.4428L2269.98 57.6422L2262.23 37.4295C2262.2 37.3379 2262.14 37.259 2262.06 37.2032C2261.98 37.1474 2261.88 37.1173 2261.78 37.117H2250.45V37.1155ZM2235.71 37.0863H2229.08C2228.81 37.0863 2228.59 37.3045 2228.59 37.5724V66.5039C2228.59 66.7753 2228.81 66.9905 2229.08 66.9905H2235.71C2235.98 66.9905 2236.2 66.7753 2236.2 66.5039V37.5745C2236.2 37.5105 2236.18 37.4472 2236.16 37.3881C2236.13 37.3291 2236.1 37.2754 2236.05 37.2302C2236.01 37.1851 2235.95 37.1493 2235.9 37.1249C2235.84 37.1006 2235.77 37.0881 2235.71 37.0883V37.0863ZM2232.43 23.9122C2229.8 23.9122 2227.67 26.039 2227.67 28.6662C2227.67 29.2911 2227.8 29.9099 2228.03 30.4872C2228.27 31.0645 2228.62 31.5891 2229.07 32.0309C2229.51 32.4727 2230.03 32.8232 2230.61 33.0623C2231.19 33.3014 2231.81 33.4244 2232.43 33.4243C2235.06 33.4243 2237.18 31.295 2237.18 28.6662C2237.18 26.0395 2235.05 23.9122 2232.43 23.9122ZM2290.53 46.389C2287.91 46.389 2285.86 44.2811 2285.86 41.7215C2285.86 39.1619 2287.93 37.03 2290.55 37.03C2293.18 37.03 2295.22 39.1373 2295.22 41.6949C2295.22 44.2545 2293.15 46.389 2290.53 46.389ZM2290.55 37.494C2288.16 37.494 2286.35 39.3944 2286.35 41.7215C2286.35 44.0475 2288.15 45.9223 2290.53 45.9223C2292.92 45.9223 2294.73 44.0235 2294.73 41.6949C2294.73 39.3688 2292.93 37.494 2290.55 37.494ZM2291.59 42.1748L2292.91 44.023H2291.79L2290.61 42.3275H2289.59V44.023H2288.65V39.124H2290.84C2291.98 39.124 2292.73 39.7064 2292.73 40.6868C2292.73 41.49 2292.27 41.9807 2291.59 42.1748H2291.59ZM2290.8 39.9645H2289.59V41.514H2290.8C2291.4 41.514 2291.77 41.2175 2291.77 40.7385C2291.77 40.2345 2291.4 39.9645 2290.8 39.9645Z" fill="#606060"/>
<path d="M2575.41 77.6865L2572.04 68.522C2572.04 68.522 2566.56 74.6322 2558.35 74.6322C2551.08 74.6322 2545.92 68.3113 2545.92 58.1979C2545.92 45.2405 2552.45 40.6054 2558.87 40.6054C2568.14 40.6054 2571.09 46.6099 2573.62 54.3005L2576.99 64.8352C2580.36 75.0531 2586.68 83.27 2604.91 83.27C2617.97 83.27 2626.82 79.2673 2626.82 68.733C2626.82 60.2001 2621.97 55.7752 2612.91 53.6681L2606.17 52.1934C2601.54 51.1401 2600.17 49.2437 2600.17 46.0832C2600.17 42.5014 2603.01 40.3943 2607.65 40.3943C2612.7 40.3943 2615.44 42.2908 2615.87 46.8206L2626.4 45.5561C2625.56 36.0752 2619.03 32.1774 2608.28 32.1774C2598.8 32.1774 2589.53 35.7592 2589.53 47.2419C2589.53 54.4055 2593.01 58.9357 2601.75 61.0424L2608.91 62.7273C2614.29 63.9918 2616.08 66.2038 2616.08 69.2593C2616.08 73.1563 2612.28 74.7367 2605.12 74.7367C2594.48 74.7367 2590.06 69.1536 2587.53 61.4629L2584.05 50.929C2579.63 37.2339 2572.57 32.1774 2558.56 32.1774C2543.07 32.1774 2534.85 41.9744 2534.85 58.6189C2534.85 74.6318 2543.07 83.2696 2557.82 83.2696C2569.72 83.2696 2575.41 77.6865 2575.41 77.6865ZM2530.33 72.7349C2529.28 73.0514 2528.22 73.262 2526.85 73.262C2524.33 73.262 2522.53 72.1037 2522.53 69.0478V11.6319H2511.47V71.6816C2511.47 79.5825 2516.95 82.8495 2523.38 82.8495C2525.48 82.8495 2527.49 82.5327 2530.01 81.9015L2530.33 72.7349ZM2663.59 71.0496C2660.85 72.9468 2658.53 73.8952 2655.37 73.8952C2651.37 73.8952 2649.15 71.7881 2649.15 66.6259V41.9727H2663.69V33.3349H2649.26V21.6399L2638.09 23.0096V33.3345H2631.03V41.9723H2638.09V68.9421C2638.09 78.6361 2643.68 83.2692 2652.74 83.2692C2657.69 83.2692 2662.11 82.3224 2665.59 80.3211L2663.59 71.0496ZM2673.2 74.8416C2673.2 79.162 2676.57 82.638 2680.89 82.638C2685.42 82.638 2688.79 79.162 2688.79 74.8416C2688.79 70.4172 2685.42 67.0473 2680.89 67.0473C2676.57 67.0473 2673.2 70.4172 2673.2 74.8416ZM2700.24 41.9727V82.006H2711.3V41.9727H2723.73V33.3349H2711.3V28.9096C2711.3 22.2731 2714.15 20.166 2718.78 20.166C2722.05 20.166 2724.26 20.9025 2726.79 22.2731L2728.58 13.0012C2725.63 11.6319 2722.15 10.8945 2717.94 10.8945C2708.67 10.8945 2700.24 15.319 2700.24 28.4879V33.3349H2693.18V41.9727H2700.24ZM2767.81 42.922C2766.54 35.0206 2761.38 32.175 2754.64 32.175C2747.9 32.175 2742.1 35.2305 2739.57 42.7101L2738.21 33.3349H2729.25V82.006H2740.31V54.5104C2740.31 45.1332 2745.16 41.5514 2750.32 41.5514C2755.69 41.5514 2757.91 45.1332 2757.91 50.9274V82.0056H2768.86V54.4047C2768.86 45.1328 2773.81 41.551 2778.98 41.551C2784.24 41.551 2786.46 45.1328 2786.46 50.927V82.0052H2797.52V47.0308C2797.52 36.6011 2791.41 32.175 2783.3 32.175C2776.45 32.175 2770.34 35.2305 2767.81 42.922Z" fill="#606060"/>
<path fill-rule="evenodd" clip-rule="evenodd" d="M239.689 40.6638C236.951 37.9492 221.524 39.3812 214.599 40.0162C212.489 40.2156 212.167 38.7959 214.067 37.775C226.355 31.0887 246.517 33.0187 248.868 35.2599C251.219 37.5136 248.256 53.14 236.71 60.5983C234.938 61.7439 233.247 61.1338 234.036 59.6146C236.629 54.6094 242.443 43.3907 239.689 40.6638Z" fill="#606060"/>
</svg>
