<svg width="42" height="42" viewBox="0 0 42 42" fill="none" xmlns="http://www.w3.org/2000/svg">
<path d="M29.207 19.2795C30.6894 18.0382 31.632 16.1737 31.632 14.0891C31.632 12.0045 30.6894 10.14 29.207 8.89873C29.3769 8.81646 29.5404 8.72718 29.6962 8.63043C30.6794 8.01908 31.8399 7.66602 33.083 7.66602C36.6305 7.66602 39.5063 10.5418 39.5063 14.0891C39.5063 17.6365 36.6305 20.5122 33.083 20.5122C31.8399 20.5122 30.6794 20.1591 29.6962 19.5478C29.5404 19.4511 29.3769 19.3618 29.207 19.2795Z" fill="url(#paint0_linear_201_435)"/>
<path d="M27.425 15.1031C28.0881 13.287 27.9722 11.201 26.9298 9.39567C25.8875 7.59033 24.1388 6.44697 22.2344 6.11313C22.3404 5.95698 22.4373 5.79791 22.5237 5.63624C23.0696 4.61521 23.8981 3.72918 24.9746 3.1077C28.0469 1.33401 31.9754 2.3866 33.7491 5.45871C35.5228 8.53083 34.4702 12.4592 31.3979 14.2328C30.3215 14.8543 29.1398 15.1288 27.9827 15.091C27.7995 15.085 27.6132 15.0895 27.425 15.1031Z" fill="url(#paint1_linear_201_435)"/>
<path d="M23.795 12.3759C23.4612 10.4715 22.3178 8.72292 20.5124 7.68061C18.707 6.63829 16.6209 6.52242 14.8047 7.18547C14.8185 6.99726 14.8229 6.81103 14.8168 6.62782C14.779 5.47065 15.0535 4.28907 15.675 3.21261C17.4489 0.140501 21.3773 -0.912084 24.4496 0.861604C27.5217 2.63529 28.5744 6.5636 26.8006 9.63574C26.1791 10.7122 25.2931 11.5407 24.2719 12.0865C24.1104 12.173 23.9513 12.2698 23.795 12.3759Z" fill="url(#paint2_linear_201_435)"/>
<path d="M19.2859 11.8282C18.0445 10.3459 16.18 9.40327 14.0952 9.40327C12.0105 9.40327 10.146 10.3459 8.90463 11.8282C8.8224 11.6583 8.7331 11.4948 8.6363 11.3391C8.02495 10.3559 7.67188 9.1954 7.67188 7.9524C7.67188 4.40502 10.5477 1.5293 14.0952 1.5293C17.6428 1.5293 20.5186 4.40502 20.5186 7.9524C20.5186 9.1954 20.1655 10.3559 19.5542 11.3391C19.4573 11.4948 19.368 11.6583 19.2859 11.8282Z" fill="url(#paint3_linear_201_435)"/>
<path d="M15.1037 13.6133C13.2875 12.9502 11.2014 13.0661 9.39596 14.1083C7.59054 15.1507 6.44714 16.8992 6.1133 18.8036C5.95714 18.6976 5.79805 18.6007 5.63638 18.5143C4.61531 17.9684 3.72925 17.1399 3.10774 16.0635C1.33397 12.9913 2.3866 9.06306 5.45884 7.28934C8.53108 5.51565 12.4595 6.56823 14.2333 9.64038C14.8549 10.7168 15.1293 11.8984 15.0915 13.0555C15.0855 13.2387 15.0899 13.425 15.1037 13.6133Z" fill="url(#paint4_linear_201_435)"/>
<path d="M12.3764 17.2519C10.472 17.5857 8.72331 18.7291 7.68095 20.5344C6.6386 22.3397 6.52272 24.4257 7.18581 26.2419C6.99756 26.2281 6.8113 26.2237 6.62807 26.2296C5.47086 26.2675 4.28924 25.993 3.21275 25.3715C0.140507 23.5978 -0.912121 19.6695 0.861638 16.5974C2.63539 13.5253 6.56385 12.4726 9.63609 14.2464C10.7126 14.8679 11.5411 15.7539 12.087 16.7748C12.1734 16.9365 12.2704 17.0956 12.3764 17.2519Z" fill="url(#paint5_linear_201_435)"/>
<path d="M11.8266 21.764C10.3443 23.0053 9.40156 24.8698 9.40156 26.9543C9.40156 29.039 10.3443 30.9035 11.8266 32.1448C11.6567 32.2269 11.4932 32.3163 11.3375 32.4131C10.3543 33.0244 9.19372 33.3774 7.95068 33.3774C4.40317 33.3774 1.52734 30.5017 1.52734 26.9543C1.52734 23.4069 4.40317 20.5312 7.95068 20.5312C9.19372 20.5312 10.3543 20.8843 11.3375 21.4957C11.4932 21.5925 11.6567 21.6817 11.8266 21.764Z" fill="url(#paint6_linear_201_435)"/>
<path d="M13.6155 25.9434C12.9523 27.7595 13.0682 29.8455 14.1106 31.6508C15.153 33.4563 16.9016 34.5995 18.806 34.9334C18.7 35.0896 18.6031 35.2487 18.5167 35.4104C17.9708 36.4313 17.1423 37.3173 16.0658 37.9388C12.9935 39.7126 9.06509 38.6599 7.29133 35.5878C5.51756 32.5157 6.5702 28.5874 9.64243 26.8137C10.7189 26.1922 11.9006 25.9177 13.0578 25.9556C13.2409 25.9615 13.4272 25.9571 13.6155 25.9434Z" fill="url(#paint7_linear_201_435)"/>
<path d="M17.25 28.6699C17.5838 30.5743 18.7272 32.3229 20.5326 33.3651C22.338 34.4074 24.4242 34.5233 26.2404 33.8603C26.2267 34.0485 26.2223 34.2347 26.2282 34.418C26.2661 35.5751 25.9916 36.7567 25.3701 37.8331C23.5962 40.9053 19.6679 41.9579 16.5956 40.1841C13.5233 38.4105 12.4707 34.4822 14.2445 31.41C14.866 30.3336 15.752 29.5051 16.773 28.9592C16.9347 28.8728 17.0938 28.7758 17.25 28.6699Z" fill="url(#paint8_linear_201_435)"/>
<path d="M21.7639 29.2188C23.0053 30.7011 24.8698 31.6437 26.9546 31.6437C29.0394 31.6437 30.9039 30.7011 32.1452 29.2188C32.2274 29.3886 32.3167 29.5521 32.4136 29.7077C33.0249 30.691 33.3779 31.8515 33.3779 33.0945C33.3779 36.6419 30.5021 39.5176 26.9546 39.5176C23.4071 39.5176 20.5312 36.6419 20.5312 33.0945C20.5312 31.8515 20.8843 30.691 21.4956 29.7077C21.5925 29.5521 21.6818 29.3886 21.7639 29.2188Z" fill="url(#paint9_linear_201_435)"/>
<path d="M25.9453 27.4325C27.7615 28.0956 29.8476 27.9797 31.653 26.9375C33.4584 25.8951 34.6018 24.1465 34.9357 22.2422C35.0918 22.3481 35.2509 22.4451 35.4126 22.5315C36.4337 23.0774 37.3197 23.9059 37.9412 24.9823C39.7151 28.0545 38.6623 31.9827 35.5902 33.7565C32.5179 35.5301 28.5895 34.4776 26.8157 31.4054C26.1942 30.329 25.9197 29.1474 25.9574 27.9903C25.9635 27.8071 25.9591 27.6208 25.9453 27.4325Z" fill="url(#paint10_linear_201_435)"/>
<path d="M33.375 20.5069C33.3737 20.5092 33.3724 20.5114 33.3711 20.5137C32.3289 22.319 30.5802 23.4624 28.6758 23.7962C28.7817 23.9524 28.8787 24.1115 28.9651 24.2731C29.511 25.2942 30.3396 26.1802 31.416 26.8017C34.4883 28.5754 38.4167 27.5227 40.1905 24.4507C41.7111 21.8168 41.1544 18.5538 39.0287 16.5586C38.0948 18.7996 35.9278 20.3982 33.375 20.5069Z" fill="url(#paint11_linear_201_435)"/>
<defs>
<linearGradient id="paint0_linear_201_435" x1="30.0113" y1="7.66602" x2="30.0113" y2="20.5122" gradientUnits="userSpaceOnUse">
<stop stop-color="#25136D"/>
<stop offset="1" stop-color="#3D9BA2"/>
</linearGradient>
<linearGradient id="paint1_linear_201_435" x1="22.3145" y1="4.64346" x2="28.7375" y2="15.7689" gradientUnits="userSpaceOnUse">
<stop stop-color="#25136D"/>
<stop offset="1" stop-color="#3D9BA2"/>
</linearGradient>
<linearGradient id="paint2_linear_201_435" x1="14.1393" y1="5.87266" x2="25.2646" y2="12.2961" gradientUnits="userSpaceOnUse">
<stop stop-color="#25136D"/>
<stop offset="1" stop-color="#3D9BA2"/>
</linearGradient>
<linearGradient id="paint3_linear_201_435" x1="7.67188" y1="11.0239" x2="20.5186" y2="11.0239" gradientUnits="userSpaceOnUse">
<stop stop-color="#25136D"/>
<stop offset="1" stop-color="#3D9BA2"/>
</linearGradient>
<linearGradient id="paint4_linear_201_435" x1="4.64357" y1="18.7235" x2="15.7689" y2="12.3" gradientUnits="userSpaceOnUse">
<stop stop-color="#25136D"/>
<stop offset="1" stop-color="#3D9BA2"/>
</linearGradient>
<linearGradient id="paint5_linear_201_435" x1="5.87291" y1="26.9073" x2="12.2959" y2="15.7819" gradientUnits="userSpaceOnUse">
<stop stop-color="#25136D"/>
<stop offset="1" stop-color="#3D9BA2"/>
</linearGradient>
<linearGradient id="paint6_linear_201_435" x1="11.0224" y1="33.3774" x2="11.0224" y2="20.5312" gradientUnits="userSpaceOnUse">
<stop stop-color="#25136D"/>
<stop offset="1" stop-color="#3D9BA2"/>
</linearGradient>
<linearGradient id="paint7_linear_201_435" x1="18.7259" y1="36.4031" x2="12.3029" y2="25.2777" gradientUnits="userSpaceOnUse">
<stop stop-color="#25136D"/>
<stop offset="1" stop-color="#3D9BA2"/>
</linearGradient>
<linearGradient id="paint8_linear_201_435" x1="26.9059" y1="35.1732" x2="15.7805" y2="28.7496" gradientUnits="userSpaceOnUse">
<stop stop-color="#25136D"/>
<stop offset="1" stop-color="#3D9BA2"/>
</linearGradient>
<linearGradient id="paint9_linear_201_435" x1="33.3779" y1="30.0229" x2="20.5312" y2="30.0229" gradientUnits="userSpaceOnUse">
<stop stop-color="#25136D"/>
<stop offset="1" stop-color="#3D9BA2"/>
</linearGradient>
<linearGradient id="paint10_linear_201_435" x1="36.4054" y1="22.3223" x2="25.2801" y2="28.7458" gradientUnits="userSpaceOnUse">
<stop stop-color="#25136D"/>
<stop offset="1" stop-color="#3D9BA2"/>
</linearGradient>
<linearGradient id="paint11_linear_201_435" x1="35.1793" y1="14.1408" x2="28.7563" y2="25.2661" gradientUnits="userSpaceOnUse">
<stop stop-color="#25136D"/>
<stop offset="1" stop-color="#3D9BA2"/>
</linearGradient>
</defs>
</svg>
