<svg width="42" height="42" viewBox="0 0 42 42" fill="none" xmlns="http://www.w3.org/2000/svg">
<path fill-rule="evenodd" clip-rule="evenodd" d="M20.5237 41.0474C31.8588 41.0474 41.0474 31.8587 41.0474 20.5237C41.0474 9.18879 31.8588 0 20.5237 0C9.18878 0 0 9.18879 0 20.5237C0 31.8587 9.18878 41.0474 20.5237 41.0474ZM23.6915 15.8572C25.441 14.1077 25.441 11.2712 23.6915 9.52164C21.942 7.77211 19.1055 7.77211 17.356 9.52164C15.6065 11.2712 15.6065 14.1077 17.356 15.8572L20.5237 19.025L23.6915 15.8572ZM25.1903 23.6915C26.9398 25.4411 29.7763 25.4411 31.5259 23.6915C33.2753 21.942 33.2753 19.1055 31.5259 17.356C29.7763 15.6065 26.9398 15.6065 25.1903 17.356L22.0226 20.5238L25.1903 23.6915ZM23.6915 31.5259C25.441 29.7763 25.441 26.9398 23.6915 25.1903L20.5237 22.0226L17.356 25.1903C15.6065 26.9398 15.6065 29.7763 17.356 31.5259C19.1055 33.2754 21.942 33.2754 23.6915 31.5259ZM9.52161 23.6915C7.77213 21.942 7.77213 19.1055 9.52161 17.356C11.2712 15.6065 14.1077 15.6065 15.8572 17.356L19.025 20.5238L15.8572 23.6915C14.1077 25.4411 11.2712 25.4411 9.52161 23.6915Z" fill="#7F57F1"/>
</svg>
