<svg width="70" height="70" viewBox="0 0 70 70" fill="none" xmlns="http://www.w3.org/2000/svg">
<path d="M52.865 52.8798H45.1795V40.8367C45.1795 37.9649 45.1212 34.2693 41.1745 34.2693C37.1675 34.2693 36.5554 37.3943 36.5554 40.6248V52.8798H28.8699V28.1148H36.2527V31.4904H36.3521C37.3838 29.5441 39.8923 27.4899 43.6398 27.4899C51.4271 27.4899 52.8673 32.6152 52.8673 39.2863L52.865 52.8798ZM20.1897 24.7262C17.7158 24.7262 15.7285 22.7237 15.7285 20.2606C15.7285 17.7997 17.718 15.7994 20.1897 15.7994C22.6549 15.7994 24.6531 17.7997 24.6531 20.2606C24.6531 22.7237 22.6528 24.7262 20.1897 24.7262ZM24.0433 52.8798H16.3361V28.1148H24.0433V52.8798ZM56.7099 8.65234H12.4782C10.3611 8.65234 8.64844 10.3261 8.64844 12.3913V56.8135C8.64844 58.8806 10.3611 60.5523 12.4782 60.5523H56.7036C58.8185 60.5523 60.5485 58.8806 60.5485 56.8135V12.3913C60.5485 10.3261 58.8185 8.65234 56.7036 8.65234H56.7099Z" fill="white"/>
</svg>
