<svg width="40" height="40" viewBox="0 0 40 40" fill="none" xmlns="http://www.w3.org/2000/svg">
<path d="M3.28125 34.4795V31.1957L6.56505 31.1953V7.9375C6.56505 7.144 7.13252 6.46404 7.91323 6.32209L23.4645 3.49457C23.9998 3.39726 24.5127 3.7523 24.6101 4.28759C24.6206 4.34575 24.6258 4.40473 24.6258 4.46382V6.56693L31.1934 6.56722C32.1003 6.56722 32.8353 7.30232 32.8353 8.20912V31.1953L36.1191 31.1957V34.4795H29.5515V9.85102L24.6258 9.85072V34.4795H3.28125ZM21.342 7.2181L9.84884 9.3078V31.1957H21.342V7.2181ZM19.7001 18.0605V21.3443H16.4164V18.0605H19.7001Z" fill="#2D2D2D"/>
</svg>
