<svg width="70" height="70" viewBox="0 0 70 70" fill="none" xmlns="http://www.w3.org/2000/svg">
<path d="M37.5605 5.76953C40.8054 5.77489 42.4498 5.79205 43.8707 5.83435L44.4303 5.85266C45.0768 5.87564 45.7146 5.90447 46.4835 5.94051C49.5517 6.08226 51.6447 6.56764 53.4828 7.28126C55.3832 8.01409 56.9884 9.00406 58.5909 10.6067C60.1912 12.2093 61.1813 13.8192 61.9166 15.715C62.6276 17.5507 63.1132 19.6459 63.2573 22.7143C63.2916 23.4832 63.3193 24.121 63.3421 24.7676L63.3603 25.3272C63.4024 26.7479 63.4217 28.3925 63.4277 31.6374L63.43 33.7875C63.4303 34.0502 63.4303 34.3212 63.4303 34.6009L63.43 35.4143L63.4283 37.5644C63.4228 40.8093 63.4058 42.4537 63.3634 43.8746L63.345 44.4342C63.3222 45.0807 63.2934 45.7185 63.2573 46.4874C63.1155 49.5556 62.6276 51.6486 61.9166 53.4867C61.1836 55.3871 60.1912 56.9923 58.5909 58.5948C56.9884 60.1951 55.376 61.1852 53.4828 61.9205C51.6447 62.6315 49.5517 63.1171 46.4835 63.2612C45.7146 63.2956 45.0768 63.3232 44.4303 63.346L43.8707 63.3642C42.4498 63.4063 40.8054 63.4256 37.5605 63.4316L35.4104 63.434C35.1477 63.4342 34.8767 63.4342 34.597 63.4342L33.7836 63.434L31.6335 63.4322C28.3886 63.4267 26.744 63.4097 25.3232 63.3673L24.7636 63.3489C24.1171 63.3261 23.4793 63.2973 22.7104 63.2612C19.642 63.1194 17.5516 62.6315 15.7111 61.9205C13.8129 61.1875 12.2054 60.1951 10.6028 58.5948C9.00015 56.9923 8.01261 55.3799 7.27736 53.4867C6.56373 51.6486 6.08077 49.5556 5.93661 46.4874C5.90235 45.7185 5.87441 45.0807 5.85178 44.4342L5.83364 43.8746C5.79146 42.4537 5.77223 40.8093 5.766 37.5644L5.76562 31.6374C5.77099 28.3925 5.78814 26.7479 5.83044 25.3272L5.84875 24.7676C5.87173 24.121 5.90057 23.4832 5.93661 22.7143C6.07835 19.6436 6.56373 17.5531 7.27736 15.715C8.01019 13.8168 9.00015 12.2093 10.6028 10.6067C12.2054 9.00406 13.8153 8.01651 15.7111 7.28126C17.5492 6.56764 19.6396 6.08468 22.7104 5.94051C23.4793 5.90626 24.1171 5.87832 24.7636 5.85569L25.3232 5.83755C26.744 5.79537 28.3886 5.77613 31.6335 5.76991L37.5605 5.76953ZM34.597 20.1842C26.6306 20.1842 20.1803 26.6415 20.1803 34.6009C20.1803 42.5673 26.6376 49.0176 34.597 49.0176C42.5634 49.0176 49.0137 42.5601 49.0137 34.6009C49.0137 26.6345 42.5562 20.1842 34.597 20.1842ZM34.597 25.9508C39.3744 25.9508 43.247 29.8221 43.247 34.6009C43.247 39.3783 39.3755 43.2509 34.597 43.2509C29.8196 43.2509 25.9469 39.3795 25.9469 34.6009C25.9469 29.8235 29.8182 25.9508 34.597 25.9508ZM49.7345 15.8592C47.747 15.8592 46.1303 17.4736 46.1303 19.4609C46.1303 21.4482 47.7447 23.0651 49.7345 23.0651C51.7217 23.0651 53.3387 21.4507 53.3387 19.4609C53.3387 17.4736 51.7191 15.8567 49.7345 15.8592Z" fill="white"/>
</svg>
