<svg width="40" height="40" viewBox="0 0 40 40" fill="none" xmlns="http://www.w3.org/2000/svg">
<path d="M3.28516 36.1224C3.28516 28.868 9.16598 22.9873 16.4203 22.9873C23.6747 22.9873 29.5555 28.868 29.5555 36.1224H3.28516ZM16.4203 21.3454C10.9774 21.3454 6.56895 16.9369 6.56895 11.494C6.56895 6.05107 10.9774 1.64258 16.4203 1.64258C21.8632 1.64258 26.2717 6.05107 26.2717 11.494C26.2717 16.9369 21.8632 21.3454 16.4203 21.3454ZM28.5093 25.012C33.5752 26.3067 37.3839 30.7428 37.7381 36.1224H32.8393C32.8393 31.8374 31.1978 27.9358 28.5093 25.012ZM25.1882 21.2746C27.869 18.8697 29.5555 15.3788 29.5555 11.494C29.5555 9.16684 28.9503 6.98106 27.8888 5.08542C31.6494 5.83594 34.4812 9.15369 34.4812 13.1359C34.4812 17.6716 30.8075 21.3454 26.2717 21.3454C25.9044 21.3454 25.5427 21.3212 25.1882 21.2746Z" fill="white"/>
</svg>
