<svg width="40" height="40" viewBox="0 0 40 40" fill="none" xmlns="http://www.w3.org/2000/svg">
<path d="M34.4799 16.5225V6.56768C34.4799 5.66089 33.7449 4.92578 32.8381 4.92578H31.1962C27.9475 8.17451 21.8418 9.99478 18.061 10.8576V28.5481C21.8418 29.4109 27.9475 31.2313 31.1962 34.4799H32.8381C33.7449 34.4799 34.4799 33.7449 34.4799 32.838V22.8832C35.8962 22.5187 36.9428 21.2329 36.9428 19.7029C36.9428 18.1728 35.8962 16.887 34.4799 16.5225ZM8.20958 11.4934C6.39599 11.4934 4.92578 12.9636 4.92578 14.7772V24.6286C4.92578 26.4422 6.39599 27.9124 8.20958 27.9124H9.85148L11.4934 36.1218H14.7772V11.4934H8.20958Z" fill="white"/>
</svg>
