<svg width="40" height="40" viewBox="0 0 40 40" fill="none" xmlns="http://www.w3.org/2000/svg">
<path d="M21.4452 13.3162L23.7672 15.6382C28.2556 20.1266 28.2556 27.4039 23.7672 31.8921L23.1866 32.4727C18.6983 36.9612 11.4211 36.9612 6.93271 32.4727C2.4443 27.9843 2.4443 20.7072 6.93271 16.2187L9.2547 18.5407C6.0487 21.7467 6.0487 26.9448 9.2547 30.1507C12.4607 33.3567 17.6587 33.3567 20.8646 30.1507L21.4452 29.5702C24.6512 26.3642 24.6512 21.1663 21.4452 17.9603L19.1232 15.6382L21.4452 13.3162ZM32.4747 23.1847L30.1527 20.8627C33.3587 17.6567 33.3587 12.4587 30.1527 9.25275C26.9467 6.04674 21.7486 6.04674 18.5427 9.25275L17.9623 9.83326C14.7562 13.0393 14.7562 18.2373 17.9623 21.4433L20.2842 23.7652L17.9623 26.0872L15.6402 23.7652C11.1518 19.2768 11.1518 11.9997 15.6402 7.51125L16.2207 6.93076C20.7092 2.44235 27.9862 2.44235 32.4747 6.93076C36.9631 11.4192 36.9631 18.6964 32.4747 23.1847Z" fill="white"/>
</svg>
