<svg width="42" height="42" viewBox="0 0 42 42" fill="none" xmlns="http://www.w3.org/2000/svg">
<path d="M0 36.9371C6.80099 36.9371 12.3142 31.4237 12.3142 24.6229C12.3142 17.8219 6.80099 12.3086 0 12.3086V20.9285C2.04028 20.9285 3.69425 22.5825 3.69425 24.6229C3.69425 26.6631 2.04028 28.3171 0 28.3171V36.9371Z" fill="#726BEA"/>
<path d="M41.0496 16.4208C38.9453 15.7542 36.7044 15.3945 34.3794 15.3945C22.1943 15.3945 12.3164 25.2726 12.3164 37.4575C12.3164 38.6806 12.4159 39.8804 12.6073 41.0492H26.3157C25.8264 39.9521 25.5543 38.7366 25.5543 37.4575C25.5543 32.5835 29.5054 28.6323 34.3794 28.6323C37.0433 28.6323 39.4314 29.8126 41.0496 31.6788V16.4208Z" fill="#A5B4FC"/>
<path d="M2.16406 0C3.185 9.23556 11.015 16.419 20.5227 16.419C30.0303 16.419 37.8604 9.23556 38.8812 0H25.6715C24.856 2.04438 22.858 3.48901 20.5227 3.48901C18.1873 3.48901 16.1894 2.04438 15.3738 0H2.16406Z" fill="#4F46E5"/>
</svg>
