<svg width="40" height="40" viewBox="0 0 40 40" fill="none" xmlns="http://www.w3.org/2000/svg">
<path d="M11.9766 34.1887L3.28906 36.1192L5.21962 27.4316C3.98759 25.1277 3.28906 22.4956 3.28906 19.7002C3.28906 10.6323 10.6401 3.28125 19.708 3.28125C28.7759 3.28125 36.127 10.6323 36.127 19.7002C36.127 28.7681 28.7759 36.1192 19.708 36.1192C16.9127 36.1192 14.2806 35.4207 11.9766 34.1887ZM12.4521 30.719L13.5251 31.2928C15.4103 32.301 17.5169 32.8354 19.708 32.8354C26.9624 32.8354 32.8432 26.9546 32.8432 19.7002C32.8432 12.4459 26.9624 6.56505 19.708 6.56505C12.4537 6.56505 6.57286 12.4459 6.57286 19.7002C6.57286 21.8913 7.10728 23.9979 8.1154 25.8831L8.6892 26.9561L7.61408 31.7941L12.4521 30.719Z" fill="#2D2D2D"/>
</svg>
