<svg width="70" height="70" viewBox="0 0 70 70" fill="none" xmlns="http://www.w3.org/2000/svg">
<path d="M20.1773 17.299V8.64896C20.1773 7.05655 21.4682 5.76562 23.0606 5.76562H57.6606C59.2531 5.76562 60.5439 7.05655 60.5439 8.64896V49.0156C60.5439 50.6081 59.2531 51.899 57.6606 51.899H49.0106V60.5464C49.0106 62.1403 47.7134 63.4323 46.1077 63.4323H11.5471C9.94373 63.4323 8.64453 62.1504 8.64453 60.5464L8.65203 20.1848C8.65232 18.591 9.94964 17.299 11.555 17.299H20.1773ZM14.4182 23.0656L14.4117 57.6656H43.2439V23.0656H14.4182ZM25.944 17.299H49.0106V46.1323H54.7773V11.5323H25.944V17.299ZM20.1779 31.7156H37.4779V37.4823H20.1779V31.7156ZM20.1779 43.249H37.4779V49.0156H20.1779V43.249Z" fill="white"/>
</svg>
