<svg width="33" height="33" viewBox="0 0 33 33" fill="none" xmlns="http://www.w3.org/2000/svg">
<path d="M24.6688 22.7377L30.5286 28.5975L28.5936 30.5325L22.7338 24.6727C20.6268 26.3584 17.9548 27.3667 15.0486 27.3667C8.25115 27.3667 2.73438 21.85 2.73438 15.0525C2.73438 8.25506 8.25115 2.73828 15.0486 2.73828C21.8461 2.73828 27.3628 8.25506 27.3628 15.0525C27.3628 17.9587 26.3544 20.6307 24.6688 22.7377ZM21.9236 21.7225C23.5967 19.9982 24.6263 17.6462 24.6263 15.0525C24.6263 9.76082 20.3403 5.47478 15.0486 5.47478C9.75691 5.47478 5.47087 9.76082 5.47087 15.0525C5.47087 20.3442 9.75691 24.6303 15.0486 24.6303C17.6423 24.6303 19.9943 23.6006 21.7185 21.9276L21.9236 21.7225Z" fill="#ACACAC"/>
</svg>
